<?xml version="1.0" encoding="utf-8"?>
<!-- Generator: Adobe Illustrator 18.0.0, SVG Export Plug-In . SVG Version: 6.00 Build 0)  -->
<!DOCTYPE svg PUBLIC "-//W3C//DTD SVG 1.1//EN" "http://www.w3.org/Graphics/SVG/1.1/DTD/svg11.dtd">
<svg version="1.1" id="Layer_1" xmlns="http://www.w3.org/2000/svg" xmlns:xlink="http://www.w3.org/1999/xlink" x="0px" y="0px"
	 viewBox="0 0 50 50" enable-background="new 0 0 50 50" xml:space="preserve">
<g>
	<path fill="#E7E3E6" d="M45.99999,1h-42c-1.65685,0-3,1.34315-3,3v3.7599c0,1.65685,1.34315,3,3,3h42c1.65686,0,3-1.34315,3-3V4
		C48.99999,2.34315,47.65685,1,45.99999,1z"/>
	<path fill="#E7E3E6" d="M45.99995,13.7467h-42c-1.65685,0-3,1.34315-3,3v3.7599c0,1.65685,1.34315,3,3,3h42
		c1.65686,0,3-1.34315,3-3v-3.7599C48.99995,15.08984,47.6568,13.7467,45.99995,13.7467z"/>
	<g>
		<path fill="#E7E3E6" d="M45.99995,26.4934h-42c-1.65685,0-3,1.34315-3,3v3.7599c0,1.65686,1.34315,3,3,3h42
			c1.65686,0,3-1.34314,3-3v-3.7599C48.99995,27.83654,47.6568,26.4934,45.99995,26.4934z"/>
	</g>
	<path fill="#E7E3E6" d="M45.99999,39.2401h-42c-1.65685,0-3,1.34315-3,3V46c0,1.65685,1.34315,3,3,3h42c1.65686,0,3-1.34315,3-3
		v-3.7599C48.99999,40.58324,47.65685,39.2401,45.99999,39.2401z"/>
	<rect x="4.54314" y="10.7599" fill="#D2D2D2" width="40.91372" height="2.9868"/>
	<rect x="4.54314" y="23.5066" fill="#D2D2D2" width="40.91372" height="2.9868"/>
	<rect x="4.54314" y="36.2533" fill="#D2D2D2" width="40.91372" height="2.9868"/>
	<g>
		<circle fill="#EC6E62" cx="6.39607" cy="18.62665" r="2.08549"/>
		<circle fill="#85BD57" cx="11.94508" cy="18.62665" r="2.08549"/>
		<circle fill="#53B1E2" cx="17.49408" cy="18.62665" r="2.08549"/>
	</g>
	<g>
		<circle fill="#EC6E62" cx="6.39607" cy="5.87995" r="2.08549"/>
		<circle fill="#85BD57" cx="11.94508" cy="5.87995" r="2.08549"/>
		<circle fill="#53B1E2" cx="17.49408" cy="5.87995" r="2.08549"/>
	</g>
	<g>
		<circle fill="#EC6E62" cx="6.39607" cy="31.37335" r="2.08549"/>
		<circle fill="#85BD57" cx="11.94508" cy="31.37335" r="2.08549"/>
		<circle fill="#53B1E2" cx="17.49408" cy="31.37335" r="2.08549"/>
	</g>
	<g>
		<circle fill="#EC6E62" cx="6.39607" cy="44.12005" r="2.08549"/>
		<circle fill="#85BD57" cx="11.94508" cy="44.12005" r="2.08549"/>
		<circle fill="#53B1E2" cx="17.49408" cy="44.12005" r="2.08549"/>
	</g>
	<g>
		<circle fill="#FFC966" cx="33.02306" cy="25" r="9.69804"/>
		<path fill="#FFFFFF" d="M38.82196,23.92759c0.39497-0.38499,0.17702-1.05577-0.36881-1.13508l-2.99354-0.435
			c-0.21675-0.0315-0.40413-0.16763-0.50107-0.36405l-1.33874-2.71257c-0.2441-0.49459-0.94938-0.49459-1.19347,0l-1.33872,2.71252
			c-0.09695,0.19644-0.28436,0.3326-0.50114,0.3641l-2.9935,0.435c-0.54583,0.07932-0.76377,0.75009-0.36881,1.13508
			l2.16613,2.11145c0.15683,0.15287,0.2284,0.37313,0.19138,0.58899l-0.51134,2.98153
			c-0.09323,0.54361,0.47735,0.95816,0.96555,0.7015l2.67749-1.40763c0.19388-0.10193,0.42551-0.10193,0.61939,0l2.67744,1.4076
			c0.48822,0.25667,1.05882-0.1579,0.96558-0.70154l-0.51136-2.98134c-0.03703-0.21591,0.03455-0.43621,0.19141-0.58912
			L38.82196,23.92759z"/>
	</g>
</g>
</svg>
