<?xml version="1.0" encoding="utf-8"?>
<!-- Generator: Adobe Illustrator 23.0.0, SVG Export Plug-In . SVG Version: 6.00 Build 0)  -->
<svg version="1.1" id="Layer_1" xmlns="http://www.w3.org/2000/svg" xmlns:xlink="http://www.w3.org/1999/xlink" x="0px" y="0px"
	 viewBox="0 0 50 50" style="enable-background:new 0 0 50 50;" xml:space="preserve">
<style type="text/css">
	.st0{fill:#4E4C4D;}
	.st1{fill:#656766;}
	.st2{fill:#EC6E62;}
	.st3{fill:#85BD57;}
	.st4{fill:#E7E3E6;}
	.st5{fill:#53B1E2;}
</style>
<g>
	<g>
		<rect x="30.4" y="24.2" class="st0" width="16.1" height="3.8"/>
		<rect x="3.5" y="24.2" class="st0" width="16.1" height="3.8"/>
		<rect x="30.4" y="15.7" class="st0" width="16.1" height="3.5"/>
		<rect x="3.5" y="15.7" class="st0" width="16.1" height="3.5"/>
		<path class="st1" d="M30.3,25.1h16.3c1.3,0,2.4-1.1,2.4-2.4v-1.9c0-1.3-1.1-2.4-2.4-2.4H30.3c-1.3,0-2.4,1.1-2.4,2.4v1.9
			C27.9,24,29,25.1,30.3,25.1z"/>
		<g>
			<circle class="st2" cx="45.4" cy="21.7" r="1.3"/>
			<circle class="st3" cx="41.8" cy="21.7" r="1.3"/>
		</g>
		<rect x="30.4" y="7" class="st0" width="16.1" height="3.5"/>
		<path class="st1" d="M30.3,33.8h16.3c1.3,0,2.4-1.1,2.4-2.4v-1.9c0-1.3-1.1-2.4-2.4-2.4H30.3c-1.3,0-2.4,1.1-2.4,2.4v1.9
			C27.9,32.7,29,33.8,30.3,33.8z"/>
		<g>
			<circle class="st2" cx="45.4" cy="30.4" r="1.3"/>
			<circle class="st3" cx="41.8" cy="30.4" r="1.3"/>
		</g>
		<path class="st1" d="M30.3,7.7h16.3c1.3,0,2.4-1.1,2.4-2.4V3.4C49,2.1,47.9,1,46.6,1H30.3c-1.3,0-2.4,1.1-2.4,2.4v1.9
			C27.9,6.6,29,7.7,30.3,7.7z"/>
		<path class="st1" d="M30.3,16.4h16.3c1.3,0,2.4-1.1,2.4-2.4v-1.9c0-1.3-1.1-2.4-2.4-2.4H30.3c-1.3,0-2.4,1.1-2.4,2.4V14
			C27.9,15.3,29,16.4,30.3,16.4z"/>
		<g>
			<circle class="st2" cx="45.4" cy="13.1" r="1.3"/>
			<circle class="st3" cx="41.8" cy="13.1" r="1.3"/>
		</g>
		<g>
			<circle class="st2" cx="45.4" cy="4.4" r="1.3"/>
			<circle class="st3" cx="41.8" cy="4.4" r="1.3"/>
		</g>
		<path class="st1" d="M19.7,25.1H3.4C2.1,25.1,1,24,1,22.7v-1.9c0-1.3,1.1-2.4,2.4-2.4h16.3c1.3,0,2.4,1.1,2.4,2.4v1.9
			C22.1,24,21,25.1,19.7,25.1z"/>
		<g>
			<circle class="st2" cx="4.6" cy="21.7" r="1.3"/>
			<circle class="st3" cx="8.2" cy="21.7" r="1.3"/>
		</g>
		<rect x="3.5" y="7" class="st0" width="16.1" height="3.5"/>
		<path class="st1" d="M19.7,33.8H3.4c-1.3,0-2.4-1.1-2.4-2.4v-1.9c0-1.3,1.1-2.4,2.4-2.4h16.3c1.3,0,2.4,1.1,2.4,2.4v1.9
			C22.1,32.7,21,33.8,19.7,33.8z"/>
		<g>
			<circle class="st2" cx="4.6" cy="30.4" r="1.3"/>
			<circle class="st3" cx="8.2" cy="30.4" r="1.3"/>
		</g>
		<path class="st1" d="M19.7,7.7H3.4C2.1,7.7,1,6.6,1,5.3V3.4C1,2.1,2.1,1,3.4,1h16.3c1.3,0,2.4,1.1,2.4,2.4v1.9
			C22.1,6.6,21,7.7,19.7,7.7z"/>
		<path class="st1" d="M19.7,16.4H3.4C2.1,16.4,1,15.3,1,14v-1.9c0-1.3,1.1-2.4,2.4-2.4h16.3c1.3,0,2.4,1.1,2.4,2.4V14
			C22.1,15.3,21,16.4,19.7,16.4z"/>
		<g>
			<circle class="st2" cx="4.6" cy="13.1" r="1.3"/>
			<circle class="st3" cx="8.2" cy="13.1" r="1.3"/>
		</g>
		<g>
			<circle class="st2" cx="4.6" cy="4.4" r="1.3"/>
			<circle class="st3" cx="8.2" cy="4.4" r="1.3"/>
		</g>
	</g>
	<path class="st4" d="M41.7,17.4H8.3c-0.9,0-1.6,0.7-1.6,1.6v20.8c0,0.9,0.7,1.6,1.6,1.6h33.3c0.9,0,1.6-0.7,1.6-1.6V19.1
		C43.3,18.2,42.6,17.4,41.7,17.4z"/>
	<rect x="8.8" y="19.4" class="st1" width="32.5" height="18.1"/>
	<g>
		<g>
			<path class="st3" d="M11.6,20.3c-0.1,0-0.2,0-0.2,0.1c-0.1,0.1-0.1,0.3,0,0.5l1,1l-1,1c-0.1,0.1-0.1,0.3,0,0.5
				c0.1,0.1,0.3,0.1,0.5,0l1.3-1.3c0.1-0.1,0.1-0.3,0-0.5l-1.3-1.3C11.8,20.3,11.7,20.3,11.6,20.3z"/>
		</g>
		<g>
			<path class="st5" d="M14.5,21.2c-0.2,0-0.3,0.1-0.3,0.3c0,0.2,0.1,0.3,0.3,0.3l1.8,0c0.2,0,0.3-0.1,0.3-0.3
				c0-0.2-0.1-0.3-0.3-0.3L14.5,21.2z"/>
		</g>
	</g>
	<path class="st2" d="M36.3,49c1.6,0,2.6-1.9,1.6-3.2c-0.7-0.9-1.8-1.7-3-2l-5.1-1.5c-0.5-0.7-0.7-1.5-0.5-2.4l0.9-3.5
		c0.5,0,0.7-0.3,0.7-0.6c0-0.4,0.1-0.7,0.3-1.1c0-0.1,0-0.1,0-0.1c0-0.2-0.3-0.5-0.2-0.7c0.1-0.3,0.6-0.7,0.5-1.1
		c-0.3-0.9-1-0.5-1-0.5s0.6-4.1,0-5.2c-0.4-0.8-0.9-1.4-1.6-1.9c0,0,0,0,0,0c-1-0.9-2.3-0.9-2.4-1.6c0,0-0.2,0.1-0.2,0.5
		c0,0.1,0,0.3,0.1,0.4c-0.3-0.2-0.5-0.3-0.7-0.5c-0.4-0.5-0.1-1-0.1-1c-2.3,0.1-3.3,1.6-3.3,1.6c0,0,0,0,0,0
		c-1.2,0.5-2.2,1.4-2.9,2.5c-0.7,1.1,0,5.2,0,5.2s-0.7-0.4-1,0.5c-0.1,0.3,0.4,0.7,0.5,1.1c0,0.2-0.2,0.5-0.2,0.7c0,0,0,0.1,0.1,0.1
		c0.2,0.3,0.3,0.7,0.3,1.1c0,0.4,0.2,0.6,0.7,0.6l0.9,3.5c0.2,0.9,0.1,1.7-0.5,2.4l-5.1,1.5c-1.2,0.4-2.3,1.1-3,2
		c-1,1.3-0.1,3.2,1.6,3.2H36.3z"/>
</g>
<image style="overflow:visible;" width="163" height="134" xlink:href="9CA1724A.jpg"  transform="matrix(1 0 0 1 119.5567 -43.1624)">
</image>
</svg>
