<?xml version="1.0" encoding="utf-8"?>
<!-- Generator: Adobe Illustrator 24.0.0, SVG Export Plug-In . SVG Version: 6.00 Build 0)  -->
<svg version="1.1"
	 id="logotype" xmlns:cc="http://creativecommons.org/ns#" xmlns:dc="http://purl.org/dc/elements/1.1/" xmlns:inkscape="http://www.inkscape.org/namespaces/inkscape" xmlns:rdf="http://www.w3.org/1999/02/22-rdf-syntax-ns#" xmlns:sodipodi="http://sodipodi.sourceforge.net/DTD/sodipodi-0.dtd" xmlns:svg="http://www.w3.org/2000/svg"
	 xmlns="http://www.w3.org/2000/svg" xmlns:xlink="http://www.w3.org/1999/xlink" x="0px" y="0px" viewBox="0 0 213.5 84.3"
	 style="enable-background:new 0 0 213.5 84.3;" xml:space="preserve">
<style type="text/css">
	.st0{opacity:0.88;fill:#E31E24;}
	.st1{fill:#E31E24;}
</style>
<g id="networks">
	<path class="st0" d="M207.2,75.6h1.5v3.1c0,0.2,0,0.4,0,0.6c0,0.2,0,0.4-0.1,0.5c0,0.2-0.1,0.3-0.1,0.5h0.2c0-0.1,0-0.3,0.1-0.4
		c0-0.1,0.1-0.3,0.1-0.4c0-0.1,0.1-0.3,0.1-0.4l1.6-3.6h2v6h-1.5v-3.1c0-0.2,0-0.4,0-0.6c0-0.2,0-0.4,0.1-0.5c0-0.2,0-0.3,0.1-0.5
		h-0.2c0,0.1,0,0.2-0.1,0.4c0,0.1-0.1,0.2-0.1,0.4c0,0.1-0.1,0.3-0.1,0.4l-1.5,3.6h-2V75.6z"/>
	<path class="st0" d="M200.3,75.6h5.8v1.5h-2.1v4.5h-1.7v-4.5h-2.1V75.6z"/>
	<path class="st0" d="M196.6,81.8c-0.4,0-0.8-0.1-1.1-0.2c-0.3-0.1-0.6-0.3-0.9-0.5s-0.4-0.5-0.6-0.8c-0.1-0.3-0.2-0.6-0.2-1v-1.4
		c0-0.4,0.1-0.7,0.2-1c0.1-0.3,0.3-0.5,0.6-0.8s0.5-0.4,0.9-0.5c0.3-0.1,0.7-0.2,1.1-0.2c0.4,0,0.8,0.1,1.1,0.2
		c0.3,0.1,0.6,0.3,0.9,0.5c0.2,0.2,0.4,0.5,0.6,0.8c0.1,0.3,0.2,0.6,0.2,1V79h-3.9v0.3c0,0.4,0.1,0.7,0.3,0.9
		c0.2,0.2,0.5,0.3,0.8,0.3c0.3,0,0.5,0,0.7-0.1c0.2-0.1,0.3-0.2,0.4-0.4h1.6c-0.1,0.3-0.2,0.5-0.3,0.7c-0.2,0.2-0.4,0.4-0.6,0.6
		s-0.5,0.3-0.8,0.4C197.2,81.7,196.9,81.8,196.6,81.8z M197.7,78v-0.1c0-0.4-0.1-0.7-0.3-0.9c-0.2-0.2-0.5-0.3-0.9-0.3
		c-0.4,0-0.6,0.1-0.8,0.3c-0.2,0.2-0.3,0.5-0.3,0.8V78H197.7z"/>
	<path class="st0" d="M190,73.6c0.4,0,0.8,0.1,1.1,0.2c0.3,0.1,0.6,0.3,0.9,0.5c0.2,0.2,0.4,0.5,0.6,0.8c0.1,0.3,0.2,0.6,0.2,1h-1.7
		c0-0.3-0.1-0.6-0.3-0.7s-0.5-0.3-0.8-0.3c-0.3,0-0.6,0.1-0.8,0.3c-0.2,0.2-0.3,0.4-0.3,0.7v3.2c0,0.3,0.1,0.5,0.3,0.7
		c0.2,0.2,0.5,0.3,0.8,0.3c0.3,0,0.6-0.1,0.8-0.3c0.2-0.2,0.3-0.4,0.3-0.7h1.7c0,0.4-0.1,0.7-0.2,1c-0.1,0.3-0.3,0.6-0.6,0.8
		c-0.2,0.2-0.5,0.4-0.9,0.5c-0.3,0.1-0.7,0.2-1.1,0.2s-0.8-0.1-1.1-0.2s-0.6-0.3-0.9-0.5c-0.2-0.2-0.4-0.5-0.6-0.8
		c-0.1-0.3-0.2-0.6-0.2-1v-3.2c0-0.4,0.1-0.7,0.2-1c0.1-0.3,0.3-0.6,0.6-0.8c0.2-0.2,0.5-0.4,0.9-0.5
		C189.2,73.7,189.6,73.6,190,73.6z"/>
</g>
<g id="commercial">
	<path class="st0" d="M176.6,81.8c-0.4,0-0.8-0.1-1.1-0.2c-0.3-0.1-0.6-0.3-0.9-0.5s-0.4-0.5-0.6-0.8c-0.1-0.3-0.2-0.6-0.2-1v-1.4
		c0-0.4,0.1-0.7,0.2-1c0.1-0.3,0.3-0.5,0.6-0.8s0.5-0.4,0.9-0.5c0.3-0.1,0.7-0.2,1.1-0.2c0.4,0,0.8,0.1,1.1,0.2
		c0.3,0.1,0.6,0.3,0.9,0.5c0.2,0.2,0.4,0.5,0.6,0.8c0.1,0.3,0.2,0.6,0.2,1V79h-3.9v0.3c0,0.4,0.1,0.7,0.3,0.9
		c0.2,0.2,0.5,0.3,0.8,0.3c0.3,0,0.5,0,0.7-0.1c0.2-0.1,0.3-0.2,0.4-0.4h1.6c-0.1,0.3-0.2,0.5-0.3,0.7c-0.2,0.2-0.4,0.4-0.6,0.6
		s-0.5,0.3-0.8,0.4C177.3,81.7,176.9,81.8,176.6,81.8z M177.8,78v-0.1c0-0.4-0.1-0.7-0.3-0.9c-0.2-0.2-0.5-0.3-0.9-0.3
		c-0.4,0-0.6,0.1-0.8,0.3c-0.2,0.2-0.3,0.5-0.3,0.8V78H177.8z"/>
	<path class="st0" d="M167.3,75.6h1.5v3.1c0,0.2,0,0.4,0,0.6c0,0.2,0,0.4-0.1,0.5c0,0.2-0.1,0.3-0.1,0.5h0.2c0-0.1,0-0.3,0.1-0.4
		c0-0.1,0.1-0.3,0.1-0.4c0-0.1,0.1-0.3,0.1-0.4l1.6-3.6h2v6h-1.5v-3.1c0-0.2,0-0.4,0-0.6c0-0.2,0-0.4,0.1-0.5c0-0.2,0-0.3,0.1-0.5
		h-0.2c0,0.1,0,0.2-0.1,0.4c0,0.1-0.1,0.2-0.1,0.4c0,0.1-0.1,0.3-0.1,0.4l-1.5,3.6h-2V75.6z"/>
	<path class="st0" d="M162.4,75.6v2.3h0.8l1.3-2.3h1.8l-1.6,3l1.7,3.1h-1.9l-1.3-2.4h-0.8v2.4h-1.6v-6H162.4z"/>
	<path class="st0" d="M156.7,81.8c-0.4,0-0.8-0.1-1.1-0.2c-0.3-0.1-0.6-0.3-0.9-0.5c-0.2-0.2-0.4-0.5-0.6-0.7s-0.2-0.6-0.2-1v-1.6
		c0-0.4,0.1-0.7,0.2-1s0.3-0.5,0.6-0.7c0.2-0.2,0.5-0.4,0.9-0.5c0.3-0.1,0.7-0.2,1.1-0.2c0.4,0,0.7,0.1,1,0.2s0.6,0.2,0.8,0.4
		c0.2,0.2,0.4,0.4,0.6,0.7s0.3,0.6,0.3,0.9h-1.7c-0.1-0.2-0.2-0.4-0.4-0.6c-0.2-0.1-0.5-0.2-0.8-0.2c-0.4,0-0.6,0.1-0.8,0.2
		s-0.3,0.4-0.3,0.7v1.6c0,0.3,0.1,0.5,0.3,0.7c0.2,0.2,0.5,0.2,0.8,0.2c0.3,0,0.5-0.1,0.7-0.2c0.2-0.1,0.3-0.3,0.4-0.6h1.7
		c-0.1,0.3-0.2,0.6-0.3,0.9c-0.2,0.3-0.4,0.5-0.6,0.7c-0.2,0.2-0.5,0.3-0.8,0.4S157.1,81.8,156.7,81.8z"/>
	<path class="st0" d="M150,81.8c-0.4,0-0.8-0.1-1.1-0.2s-0.6-0.3-0.9-0.5c-0.2-0.2-0.4-0.5-0.6-0.8s-0.2-0.6-0.2-1v-1.4
		c0-0.4,0.1-0.7,0.2-1c0.1-0.3,0.3-0.5,0.6-0.8c0.2-0.2,0.5-0.4,0.9-0.5c0.3-0.1,0.7-0.2,1.1-0.2c0.4,0,0.8,0.1,1.1,0.2
		c0.3,0.1,0.6,0.3,0.9,0.5c0.2,0.2,0.4,0.5,0.6,0.8s0.2,0.6,0.2,1V79h-3.9v0.3c0,0.4,0.1,0.7,0.3,0.9c0.2,0.2,0.5,0.3,0.8,0.3
		c0.3,0,0.5,0,0.7-0.1c0.2-0.1,0.3-0.2,0.4-0.4h1.6c-0.1,0.3-0.2,0.5-0.3,0.7c-0.2,0.2-0.4,0.4-0.6,0.6s-0.5,0.3-0.8,0.4
		S150.3,81.8,150,81.8z M151.1,78v-0.1c0-0.4-0.1-0.7-0.3-0.9c-0.2-0.2-0.5-0.3-0.9-0.3c-0.4,0-0.6,0.1-0.8,0.3
		c-0.2,0.2-0.3,0.5-0.3,0.8V78H151.1z"/>
	<path class="st0" d="M142.9,80c-0.8,0-1.3-0.2-1.8-0.6c-0.4-0.4-0.6-1-0.6-1.7v-2.1h1.6v2c0,0.3,0.1,0.5,0.3,0.6
		c0.2,0.2,0.5,0.2,0.8,0.2c0.2,0,0.3,0,0.5,0s0.2,0,0.3,0c0.1,0,0.2,0,0.2-0.1v-2.8h1.6v6h-1.6v-1.1c0-0.2,0-0.3,0-0.4
		c0-0.1,0-0.2,0-0.2c0-0.1,0-0.1,0-0.1c0,0,0,0,0,0c-0.1,0-0.2,0-0.5,0.1C143.6,79.9,143.3,80,142.9,80z"/>
	<path class="st0" d="M135.7,75.6v1h0.1c0.1-0.4,0.2-0.6,0.5-0.8c0.3-0.2,0.6-0.3,1.1-0.3c0.3,0,0.6,0.1,0.9,0.2
		c0.3,0.1,0.5,0.3,0.7,0.5c0.2,0.2,0.3,0.5,0.4,0.7c0.1,0.3,0.1,0.6,0.1,1v1.5c0,0.4,0,0.7-0.1,1c-0.1,0.3-0.2,0.5-0.4,0.8
		c-0.2,0.2-0.4,0.4-0.7,0.5c-0.3,0.1-0.5,0.2-0.9,0.2c-0.4,0-0.8-0.1-1.1-0.3c-0.3-0.2-0.4-0.5-0.5-0.9h-0.1c0,0.1,0,0.2,0,0.4
		s0,0.4,0,0.7v1.8h-1.7v-7.9H135.7z M135.7,79.3c0,0.3,0.1,0.5,0.3,0.7c0.2,0.2,0.4,0.3,0.8,0.3s0.6-0.1,0.8-0.3
		c0.2-0.2,0.3-0.4,0.3-0.7v-1.4c0-0.3-0.1-0.5-0.3-0.7c-0.2-0.2-0.4-0.3-0.8-0.3s-0.6,0.1-0.8,0.3c-0.2,0.2-0.3,0.4-0.3,0.7V79.3z"
		/>
	<path class="st0" d="M130,81.8c-0.4,0-0.8-0.1-1.1-0.2s-0.6-0.3-0.9-0.5c-0.2-0.2-0.4-0.5-0.6-0.8s-0.2-0.6-0.2-1v-1.4
		c0-0.4,0.1-0.7,0.2-1c0.1-0.3,0.3-0.5,0.6-0.8c0.2-0.2,0.5-0.4,0.9-0.5c0.3-0.1,0.7-0.2,1.1-0.2c0.4,0,0.8,0.1,1.1,0.2
		c0.3,0.1,0.6,0.3,0.9,0.5c0.2,0.2,0.4,0.5,0.6,0.8s0.2,0.6,0.2,1V79h-3.9v0.3c0,0.4,0.1,0.7,0.3,0.9c0.2,0.2,0.5,0.3,0.8,0.3
		c0.3,0,0.5,0,0.7-0.1c0.2-0.1,0.3-0.2,0.4-0.4h1.6c-0.1,0.3-0.2,0.5-0.3,0.7c-0.2,0.2-0.4,0.4-0.6,0.6s-0.5,0.3-0.8,0.4
		S130.4,81.8,130,81.8z M131.2,78v-0.1c0-0.4-0.1-0.7-0.3-0.9c-0.2-0.2-0.5-0.3-0.9-0.3c-0.4,0-0.6,0.1-0.8,0.3
		c-0.2,0.2-0.3,0.5-0.3,0.8V78H131.2z"/>
	<path class="st0" d="M120.5,81.7v-6h1.9l0.8,2.2c0,0.1,0.1,0.3,0.1,0.4c0,0.1,0,0.2,0,0.3h0.1c0-0.1,0-0.2,0-0.3
		c0-0.2,0.1-0.3,0.1-0.4l0.7-2.2h1.9v6h-1.4v-3c0-0.2,0-0.4,0-0.6c0-0.2,0-0.3,0-0.4c0-0.2,0-0.3,0.1-0.4h-0.1c0,0.1,0,0.3-0.1,0.4
		c0,0.1,0,0.2-0.1,0.3c0,0.1-0.1,0.2-0.1,0.4l-0.5,1.5h-1.3l-0.5-1.5c0-0.1-0.1-0.2-0.1-0.4s-0.1-0.2-0.1-0.4c0-0.1,0-0.2,0-0.4
		h-0.2c0,0.1,0,0.3,0.1,0.4c0,0.1,0,0.3,0,0.4c0,0.2,0,0.4,0,0.6v3H120.5z"/>
	<path class="st0" d="M113.9,81.7v-6h1.9l0.8,2.2c0,0.1,0.1,0.3,0.1,0.4c0,0.1,0,0.2,0,0.3h0.1c0-0.1,0-0.2,0-0.3
		c0-0.2,0.1-0.3,0.1-0.4l0.7-2.2h1.9v6h-1.4v-3c0-0.2,0-0.4,0-0.6c0-0.2,0-0.3,0-0.4c0-0.2,0-0.3,0.1-0.4h-0.1c0,0.1,0,0.3-0.1,0.4
		c0,0.1,0,0.2-0.1,0.3c0,0.1-0.1,0.2-0.1,0.4l-0.5,1.5h-1.3l-0.5-1.5c0-0.1-0.1-0.2-0.1-0.4s-0.1-0.2-0.1-0.4c0-0.1,0-0.2,0-0.4
		h-0.2c0,0.1,0,0.3,0.1,0.4c0,0.1,0,0.3,0,0.4c0,0.2,0,0.4,0,0.6v3H113.9z"/>
	<path class="st0" d="M107.3,77.9c0-0.4,0.1-0.7,0.2-1s0.3-0.6,0.6-0.8c0.2-0.2,0.5-0.4,0.9-0.5c0.3-0.1,0.7-0.2,1.1-0.2
		s0.8,0.1,1.1,0.2c0.3,0.1,0.6,0.3,0.9,0.5c0.2,0.2,0.4,0.5,0.6,0.8s0.2,0.6,0.2,1v1.4c0,0.4-0.1,0.7-0.2,1
		c-0.1,0.3-0.3,0.6-0.6,0.8c-0.2,0.2-0.5,0.4-0.9,0.5s-0.7,0.2-1.1,0.2s-0.8-0.1-1.1-0.2c-0.3-0.1-0.6-0.3-0.9-0.5
		c-0.2-0.2-0.4-0.5-0.6-0.8c-0.1-0.3-0.2-0.6-0.2-1V77.9z M108.9,79.3c0,0.3,0.1,0.5,0.3,0.7c0.2,0.2,0.5,0.3,0.8,0.3
		s0.6-0.1,0.8-0.3c0.2-0.2,0.3-0.4,0.3-0.7v-1.4c0-0.3-0.1-0.5-0.3-0.7c-0.2-0.2-0.5-0.3-0.8-0.3s-0.6,0.1-0.8,0.3s-0.3,0.4-0.3,0.7
		V79.3z"/>
	<path class="st0" d="M102.5,73.7v3.1h0.8l1.3-3.1h1.8l-1.6,3.8l1.7,4.1h-1.8l-1.4-3.3h-0.8v3.3h-1.7v-7.9H102.5z"/>
</g>
<g id="alternative">
	<path class="st0" d="M90.1,81.8c-0.4,0-0.8-0.1-1.1-0.2c-0.3-0.1-0.6-0.3-0.9-0.5c-0.2-0.2-0.4-0.5-0.6-0.8s-0.2-0.6-0.2-1v-1.4
		c0-0.4,0.1-0.7,0.2-1c0.1-0.3,0.3-0.5,0.6-0.8c0.2-0.2,0.5-0.4,0.9-0.5c0.3-0.1,0.7-0.2,1.1-0.2c0.4,0,0.8,0.1,1.1,0.2
		c0.3,0.1,0.6,0.3,0.9,0.5c0.2,0.2,0.4,0.5,0.6,0.8s0.2,0.6,0.2,1V79H89v0.3c0,0.4,0.1,0.7,0.3,0.9c0.2,0.2,0.5,0.3,0.8,0.3
		c0.3,0,0.5,0,0.7-0.1c0.2-0.1,0.3-0.2,0.4-0.4h1.6c-0.1,0.3-0.2,0.5-0.3,0.7c-0.2,0.2-0.4,0.4-0.6,0.6c-0.2,0.2-0.5,0.3-0.8,0.4
		S90.4,81.8,90.1,81.8z M91.3,78v-0.1c0-0.4-0.1-0.7-0.3-0.9c-0.2-0.2-0.5-0.3-0.9-0.3c-0.4,0-0.6,0.1-0.8,0.3
		c-0.2,0.2-0.3,0.5-0.3,0.8V78H91.3z"/>
	<path class="st0" d="M82,75.6v1.8h0.3c0.7,0,1.2,0.2,1.6,0.6c0.4,0.4,0.6,0.9,0.6,1.6c0,0.3-0.1,0.6-0.2,0.8s-0.3,0.5-0.5,0.7
		s-0.4,0.3-0.7,0.4c-0.3,0.1-0.6,0.2-0.9,0.2h-1.6v-6H82z M82,80.4h0.2c0.3,0,0.5-0.1,0.6-0.2c0.2-0.1,0.2-0.3,0.2-0.6
		c0-0.3-0.1-0.5-0.2-0.6c-0.1-0.2-0.4-0.2-0.7-0.2H82V80.4z M84.9,75.6h1.4v6h-1.4V75.6z"/>
	<path class="st0" d="M75.9,75.6v2.2h1.9v-2.2h1.6v6h-1.6v-2.3h-1.9v2.3h-1.7v-6H75.9z"/>
	<path class="st0" d="M67.5,75.6h2.9c0.7,0,1.3,0.1,1.7,0.4c0.4,0.3,0.6,0.7,0.6,1.2c0,0.4-0.1,0.6-0.4,0.8s-0.6,0.3-1.1,0.3v0.1
		c0.5,0,0.9,0.1,1.2,0.4c0.3,0.2,0.4,0.6,0.4,1c0,0.5-0.2,1-0.6,1.3c-0.4,0.3-1,0.5-1.8,0.5h-2.9V75.6z M69.1,78h1.2
		c0.3,0,0.5-0.1,0.6-0.2c0.1-0.1,0.2-0.3,0.2-0.5s-0.1-0.3-0.2-0.5c-0.1-0.1-0.3-0.2-0.6-0.2h-1.2V78z M69.1,79.2v1.3h1.3
		c0.3,0,0.5-0.1,0.6-0.2c0.2-0.1,0.2-0.3,0.2-0.5c0-0.2-0.1-0.4-0.2-0.5c-0.2-0.1-0.4-0.2-0.6-0.2H69.1z"/>
	<path class="st0" d="M60.8,75.6h1.5v3.1c0,0.2,0,0.4,0,0.6s0,0.4-0.1,0.5c0,0.2-0.1,0.3-0.1,0.5h0.2c0-0.1,0-0.3,0.1-0.4
		c0-0.1,0.1-0.3,0.1-0.4c0-0.1,0.1-0.3,0.1-0.4l1.6-3.6h2v6h-1.5v-3.1c0-0.2,0-0.4,0-0.6c0-0.2,0-0.4,0.1-0.5c0-0.2,0-0.3,0.1-0.5
		h-0.2c0,0.1,0,0.2-0.1,0.4c0,0.1-0.1,0.2-0.1,0.4c0,0.1-0.1,0.3-0.1,0.4l-1.5,3.6h-2V75.6z"/>
	<path class="st0" d="M53.9,75.6h5.8v1.5h-2.1v4.5H56v-4.5h-2.1V75.6z"/>
	<path class="st0" d="M47.3,80c0-0.6,0.2-1.1,0.7-1.5s1.1-0.5,1.8-0.5h1.3v-0.5c0-0.2-0.1-0.4-0.3-0.5s-0.4-0.2-0.7-0.2
		c-0.3,0-0.5,0-0.7,0.1c-0.2,0.1-0.3,0.2-0.3,0.4h-1.6c0-0.3,0.1-0.5,0.3-0.8s0.3-0.4,0.6-0.6c0.2-0.2,0.5-0.3,0.8-0.4
		c0.3-0.1,0.6-0.1,1-0.1c0.4,0,0.8,0,1.1,0.1c0.3,0.1,0.6,0.2,0.8,0.4c0.2,0.2,0.4,0.4,0.5,0.6s0.2,0.5,0.2,0.8v4.2h-1.6v-1.2h-0.1
		c-0.1,0.4-0.2,0.7-0.6,1c-0.3,0.2-0.8,0.4-1.3,0.4c-0.6,0-1.1-0.2-1.4-0.5C47.5,81,47.3,80.5,47.3,80z M49.9,80.5
		c0.4,0,0.6-0.1,0.9-0.2s0.3-0.4,0.3-0.6V79h-1.3c-0.3,0-0.5,0.1-0.6,0.2c-0.2,0.1-0.2,0.3-0.2,0.5s0.1,0.4,0.2,0.6
		S49.6,80.5,49.9,80.5z"/>
	<path class="st0" d="M42.6,75.6v2.2h1.9v-2.2h1.6v6h-1.6v-2.3h-1.9v2.3h-1.7v-6H42.6z"/>
	<path class="st0" d="M35.8,75.6v1H36c0.1-0.4,0.2-0.6,0.5-0.8c0.3-0.2,0.6-0.3,1.1-0.3c0.3,0,0.6,0.1,0.9,0.2
		c0.3,0.1,0.5,0.3,0.7,0.5c0.2,0.2,0.3,0.5,0.4,0.7c0.1,0.3,0.1,0.6,0.1,1v1.5c0,0.4,0,0.7-0.1,1c-0.1,0.3-0.2,0.5-0.4,0.8
		s-0.4,0.4-0.7,0.5c-0.3,0.1-0.5,0.2-0.9,0.2c-0.4,0-0.8-0.1-1.1-0.3S36,81,36,80.6h-0.1c0,0.1,0,0.2,0,0.4s0,0.4,0,0.7v1.8h-1.6
		v-7.9H35.8z M35.9,79.3c0,0.3,0.1,0.5,0.3,0.7c0.2,0.2,0.4,0.3,0.8,0.3c0.3,0,0.6-0.1,0.8-0.3c0.2-0.2,0.3-0.4,0.3-0.7v-1.4
		c0-0.3-0.1-0.5-0.3-0.7s-0.4-0.3-0.8-0.3c-0.3,0-0.6,0.1-0.8,0.3c-0.2,0.2-0.3,0.4-0.3,0.7V79.3z"/>
	<path class="st0" d="M30.2,81.8c-0.4,0-0.8-0.1-1.1-0.2c-0.3-0.1-0.6-0.3-0.9-0.5c-0.2-0.2-0.4-0.5-0.6-0.8s-0.2-0.6-0.2-1v-1.4
		c0-0.4,0.1-0.7,0.2-1c0.1-0.3,0.3-0.5,0.6-0.8c0.2-0.2,0.5-0.4,0.9-0.5c0.3-0.1,0.7-0.2,1.1-0.2c0.4,0,0.8,0.1,1.1,0.2
		c0.3,0.1,0.6,0.3,0.9,0.5c0.2,0.2,0.4,0.5,0.6,0.8s0.2,0.6,0.2,1V79h-3.9v0.3c0,0.4,0.1,0.7,0.3,0.9c0.2,0.2,0.5,0.3,0.8,0.3
		c0.3,0,0.5,0,0.7-0.1c0.2-0.1,0.3-0.2,0.4-0.4h1.6c-0.1,0.3-0.2,0.5-0.3,0.7c-0.2,0.2-0.4,0.4-0.6,0.6c-0.2,0.2-0.5,0.3-0.8,0.4
		S30.5,81.8,30.2,81.8z M31.4,78v-0.1c0-0.4-0.1-0.7-0.3-0.9c-0.2-0.2-0.5-0.3-0.9-0.3c-0.4,0-0.6,0.1-0.8,0.3
		c-0.2,0.2-0.3,0.5-0.3,0.8V78H31.4z"/>
	<path class="st0" d="M20.6,75.6h5.8v1.5h-2.1v4.5h-1.6v-4.5h-2.1V75.6z"/>
	<path class="st0" d="M14.4,75.6H16v1.8h1.5c0.8,0,1.4,0.2,1.8,0.6c0.4,0.4,0.6,0.9,0.6,1.6c0,0.7-0.2,1.2-0.6,1.5s-1,0.6-1.8,0.6
		h-3.1V75.6z M17.4,80.2c0.3,0,0.5-0.1,0.6-0.2s0.2-0.3,0.2-0.5c0-0.2-0.1-0.4-0.2-0.5c-0.2-0.1-0.4-0.2-0.6-0.2H16v1.4H17.4z"/>
	<path class="st0" d="M8.2,75.6h4.7v6h-1.6v-4.5H9.8l0,2.3c0,0.3-0.1,0.6-0.2,0.9c-0.1,0.3-0.3,0.5-0.5,0.7
		c-0.2,0.2-0.4,0.3-0.7,0.5c-0.3,0.1-0.6,0.2-0.9,0.2H7.1v-1.5h0.3c0.2,0,0.3-0.1,0.5-0.2c0.1-0.2,0.2-0.4,0.2-0.6L8.2,75.6z"/>
	<path class="st0" d="M0.4,81.7l2.1-7.9h2.2l2.1,7.9H5.1l-0.4-1.8H2.5l-0.4,1.8H0.4z M2.8,78.6h1.6l-0.6-2.6c0-0.1,0-0.2-0.1-0.4
		s0-0.3-0.1-0.4c0-0.1,0-0.3,0-0.4H3.5c0,0.1,0,0.3-0.1,0.4c0,0.1,0,0.2,0,0.4c0,0.1,0,0.2-0.1,0.4L2.8,78.6z"/>
</g>
<g id="type">
	<path id="letter-c" class="st1" d="M194.2,7c2.9,0,5.4,0.4,7.7,1.2c2.3,0.8,4.3,2,6,3.4c1.7,1.5,3,3.3,4,5.4c1,2.1,1.5,4.5,1.6,7.1
		h-10.1c-0.1-2.5-1-4.5-2.6-6c-1.7-1.4-3.8-2.2-6.5-2.2c-2.8,0-5,0.8-6.7,2.4c-1.6,1.6-2.5,3.7-2.5,6.5v24.2c0,2.8,0.8,4.9,2.4,6.5
		c1.6,1.6,3.9,2.4,6.8,2.4c2.7,0,4.9-0.7,6.5-2.2c1.6-1.5,2.5-3.5,2.6-6h10.1c-0.3,5.3-2.1,9.5-5.6,12.6c-3.4,3.1-8,4.7-13.8,4.7
		c-2.9,0-5.6-0.4-8-1.3c-2.4-0.8-4.4-2-6.1-3.6c-1.7-1.6-3-3.5-3.9-5.7c-0.9-2.2-1.4-4.7-1.4-7.4V25c0-2.7,0.5-5.2,1.4-7.4
		c0.9-2.2,2.2-4.1,3.9-5.7c1.7-1.6,3.7-2.8,6.1-3.6C188.6,7.5,191.3,7,194.2,7z"/>
	<path id="letter-k" class="st1" d="M135.1,7.8v23.7h7.5l11.2-23.7H165l-13.6,28l14.2,30.4h-11.4l-11.7-25.6h-7.5v25.6h-10.2V7.8
		H135.1z"/>
	<path id="letter-a" class="st1" d="M70,66.3L85.7,7.8h13.7l15.3,58.4h-10.5l-3.5-14.7h-17l-3.5,14.7H70z M85.8,43.5h13.1l-5-20.9
		c-0.2-1-0.4-1.9-0.6-2.9c-0.2-1-0.3-1.8-0.4-2.6c-0.1-0.9-0.2-1.7-0.3-2.6h-0.4c-0.1,0.9-0.2,1.7-0.3,2.6c-0.1,0.8-0.2,1.6-0.4,2.6
		c-0.2,1-0.4,1.9-0.6,2.9L85.8,43.5z"/>
</g>
<g id="logo">
	<path id="nord-west" class="st1" d="M12.7,28.9L10,27.7c0.2-0.9,0.1-1.8-0.3-2.7c-0.5-1.1-1.4-2-2.6-2.5C5.9,22,4.6,22,3.5,22.4
		c-1.2,0.4-2.1,1.3-2.6,2.4S0.5,27.1,1,28.3c0.5,1.1,1.5,2,2.6,2.5c0.6,0.3,1.3,0.4,2,0.4c0.6,0,1.1-0.1,1.6-0.3
		c0.9-0.3,1.7-0.9,2.2-1.7l2.7,1.1L12.7,28.9z M8.6,28c-0.3,0.8-1,1.3-1.8,1.6C6,29.9,5,29.9,4.1,29.5c-0.9-0.4-1.6-1-1.9-1.8
		c-0.4-0.8-0.4-1.7-0.1-2.4c0.3-0.8,1-1.3,1.8-1.6c0.4-0.1,0.8-0.2,1.2-0.2c0.5,0,1,0.1,1.5,0.3c0.9,0.4,1.6,1,1.9,1.8
		C8.9,26.4,8.9,27.2,8.6,28z"/>
	<path id="south-west" class="st1" d="M19.2,56.7l-1.9,2.2c-1.9-1-4.4-0.6-5.9,1.2c-0.8,1-1.3,2.2-1.2,3.4c0.1,1.3,0.6,2.4,1.5,3.2
		h0c0.8,0.7,1.8,1,2.8,1c1.4,0,2.8-0.6,3.8-1.8c0.8-1,1.3-2.2,1.2-3.4c0-1-0.4-1.9-1-2.6l1.9-2.2L19.2,56.7z M17.3,65.1
		c-1.2,1.5-3.3,1.8-4.7,0.6c-0.6-0.5-1-1.3-1-2.2c0-0.9,0.3-1.8,0.9-2.5c1.2-1.5,3.3-1.8,4.7-0.6c0.6,0.5,1,1.3,1,2.2
		C18.2,63.5,17.9,64.4,17.3,65.1z"/>
	<path id="south-ost" class="st1" d="M53.5,58.6c-1-0.1-1.9,0.1-2.7,0.5l-1.9-2.2l-1.2,1l1.9,2.2c-0.6,0.7-0.9,1.6-0.9,2.6
		c0,1.2,0.4,2.5,1.2,3.4c0.8,1,2,1.6,3.2,1.7c0.2,0,0.4,0,0.6,0c1,0,2-0.4,2.8-1c0.9-0.8,1.5-1.9,1.5-3.2c0-1.2-0.4-2.5-1.2-3.4
		C55.8,59.4,54.7,58.8,53.5,58.6z M55.5,66L55.5,66c-0.6,0.5-1.5,0.8-2.3,0.7c-0.9-0.1-1.7-0.6-2.3-1.3c-0.6-0.7-0.9-1.6-0.9-2.5
		c0-0.9,0.4-1.7,1-2.2c0.5-0.5,1.2-0.7,1.9-0.7c0.1,0,0.3,0,0.4,0c0.9,0.1,1.7,0.6,2.3,1.3c0.6,0.7,0.9,1.6,0.9,2.5
		C56.5,64.6,56.2,65.4,55.5,66z"/>
	<path id="nord-ost" class="st1" d="M67.6,24.8c-0.9-2.3-3.7-3.3-6.2-2.3c-2.2,0.9-3.4,3.1-3,5.2l-2.7,1.1l0.6,1.5l2.7-1.1
		c0.8,1.3,2.3,2,3.8,2c0.6,0,1.3-0.1,2-0.4c1.2-0.5,2.1-1.4,2.6-2.5C68,27.2,68.1,25.9,67.6,24.8z M66.3,27.7
		c-0.4,0.8-1.1,1.5-1.9,1.8c-1.8,0.7-3.8,0-4.4-1.6c-0.7-1.6,0.2-3.5,2-4.2c0.5-0.2,1-0.3,1.5-0.3c1.3,0,2.5,0.7,3,1.9
		C66.7,26.1,66.6,26.9,66.3,27.7z"/>
	<g id="nord">
		<path class="st1" d="M33.5,9.8l0,2.8l1.6,0l0-2.8c2.2-0.4,3.8-2.4,3.8-4.9c0-2.7-2.1-5-4.6-5s-4.6,2.2-4.6,5
			C29.6,7.4,31.3,9.4,33.5,9.8z M34.3,1.6c1.7,0,3,1.5,3,3.4s-1.4,3.4-3,3.4s-3-1.5-3-3.4S32.6,1.6,34.3,1.6z"/>
	</g>
	<g id="globe">
		<path class="st1" d="M34.3,14.7c-11.4,0-20.6,9.8-20.6,21.9c0,12.1,9.3,21.9,20.6,21.9s20.6-9.8,20.6-21.9
			C54.9,24.5,45.7,14.7,34.3,14.7z M32,16.5c-4.1,4.2-6.9,8.6-8.2,13h-7.2C18.9,22.5,24.9,17.4,32,16.5z M15.3,36.6
			c0-1.9,0.3-3.8,0.7-5.6h7.3c-0.5,2.1-0.7,4.1-0.5,6.2c0.1,1.6,0.4,3.2,0.8,4.6l-7.6,0C15.5,40.2,15.3,38.5,15.3,36.6z M16.4,43.5
			l7.6,0c2.4,7,7.4,11.9,9.1,13.4C25.4,56.4,18.9,51,16.4,43.5z M33.4,55c-2-1.9-5.7-6-7.7-11.5l7.7,0V55z M33.4,42l-8.2,0
			c-0.4-1.5-0.7-3.1-0.8-4.7c-0.1-2.1,0.1-4.1,0.6-6.1h8.4V42z M33.4,29.5h-8c1.4-4.1,4-8.2,7.9-12.1c0,0,0,0,0.1-0.1V29.5z
			 M52.1,29.5h-7.2c-2-6.5-6.3-11.1-8.4-13.1C43.6,17.3,49.6,22.5,52.1,29.5z M35,17.3c1.7,1.5,6.1,6,8.2,12.2H35V17.3z M35,31.1
			h8.7c0.3,1.3,0.6,2.7,0.7,4.1c0.1,2.3-0.1,4.6-0.8,6.8L35,42V31.1z M35,55.5V43.6l8.1,0c-1.4,3.9-4,7.8-7.8,11.6
			C35.2,55.3,35.1,55.4,35,55.5z M35.8,56.9c0.2-0.2,0.4-0.4,0.6-0.6c4.1-4.1,6.9-8.3,8.3-12.7l7.4,0C49.6,50.9,43.3,56.3,35.8,56.9
			z M45.2,42c0.6-2.3,0.8-4.6,0.7-6.9c-0.1-1.4-0.3-2.8-0.6-4h7.2c0.5,1.8,0.7,3.6,0.7,5.6c0,1.9-0.3,3.7-0.7,5.4L45.2,42z"/>
	</g>
</g>
</svg>
