<?xml version="1.0" encoding="utf-8"?>
<!-- Generator: Adobe Illustrator 24.0.0, SVG Export Plug-In . SVG Version: 6.00 Build 0)  -->
<svg version="1.1"
	 id="logotype" xmlns:cc="http://creativecommons.org/ns#" xmlns:dc="http://purl.org/dc/elements/1.1/" xmlns:inkscape="http://www.inkscape.org/namespaces/inkscape" xmlns:rdf="http://www.w3.org/1999/02/22-rdf-syntax-ns#" xmlns:sodipodi="http://sodipodi.sourceforge.net/DTD/sodipodi-0.dtd" xmlns:svg="http://www.w3.org/2000/svg"
	 xmlns="http://www.w3.org/2000/svg" xmlns:xlink="http://www.w3.org/1999/xlink" x="0px" y="0px" viewBox="0 0 189.7 60.3"
	 style="enable-background:new 0 0 189.7 60.3;" xml:space="preserve">
<style type="text/css">
	.st0{display:none;}
	.st1{display:inline;fill:#E31E24;}
	.st2{fill:#E31E24;}
</style>
<g id="type" class="st0">
	<path id="letter-c" class="st1" d="M172.6,3.6c2.5,0,4.8,0.4,6.9,1.1c2,0.7,3.8,1.7,5.3,3.1c1.5,1.3,2.7,2.9,3.5,4.8
		c0.9,1.9,1.3,4,1.4,6.3h-9c-0.1-2.3-0.9-4-2.3-5.3c-1.5-1.3-3.4-1.9-5.8-1.9c-2.5,0-4.5,0.7-5.9,2.1c-1.5,1.4-2.2,3.3-2.2,5.8v21.5
		c0,2.4,0.7,4.4,2.1,5.8c1.4,1.4,3.4,2.1,6,2.1c2.4,0,4.3-0.7,5.8-2c1.5-1.3,2.2-3.1,2.3-5.3h9c-0.2,4.7-1.9,8.4-4.9,11.2
		c-3,2.8-7.1,4.1-12.2,4.1c-2.6,0-4.9-0.4-7.1-1.1c-2.1-0.7-3.9-1.8-5.4-3.2c-1.5-1.4-2.6-3.1-3.5-5c-0.8-2-1.2-4.2-1.2-6.6V19.5
		c0-2.4,0.4-4.6,1.2-6.6c0.8-2,2-3.6,3.5-5c1.5-1.4,3.3-2.5,5.4-3.2C167.6,4,170,3.6,172.6,3.6z"/>
	<path id="letter-k" class="st1" d="M120.1,4.3v21h6.6l9.9-21h10l-12,24.8l12.6,27h-10.2l-10.4-22.7h-6.6v22.7H111V4.3H120.1z"/>
	<path id="letter-a" class="st1" d="M62.3,56.1l14-51.8h12.2l13.6,51.8h-9.3l-3.1-13h-15l-3.1,13H62.3z M76.4,36H88l-4.4-18.5
		c-0.2-0.9-0.4-1.7-0.5-2.6c-0.2-0.9-0.3-1.6-0.4-2.3c-0.1-0.8-0.2-1.5-0.3-2.3H82c-0.1,0.8-0.2,1.5-0.3,2.3
		c-0.1,0.7-0.2,1.4-0.4,2.3c-0.1,0.9-0.3,1.7-0.6,2.6L76.4,36z"/>
</g>
<path class="st2" d="M29.9,13c-10.1,0-18.3,8.7-18.3,19.5c0,10.7,8.2,19.5,18.3,19.5s18.3-8.7,18.3-19.5C48.2,21.8,40,13,29.9,13z
	 M21.1,33c-0.1-1.8,0.1-3.6,0.5-5.4h7.5v9.7l-7.3,0C21.5,35.9,21.2,34.5,21.1,33z M30.5,15.3c1.5,1.3,5.4,5.3,7.3,10.9h-7.3V15.3z
	 M29.1,15.3v10.8H22C23.2,22.5,25.6,18.9,29.1,15.3C29.1,15.4,29.1,15.4,29.1,15.3z M29.1,38.7v10.1c-1.7-1.7-5-5.3-6.8-10.2
	L29.1,38.7z M30.5,49.2V38.7l7.2,0c-1.3,3.5-3.6,6.9-6.9,10.3C30.7,49.1,30.6,49.1,30.5,49.2z M30.5,37.3v-9.7h7.7
	c0.3,1.2,0.5,2.4,0.6,3.7c0.1,2-0.1,4-0.7,6L30.5,37.3z M40.3,31.2c-0.1-1.2-0.3-2.4-0.5-3.6h6.4c0.4,1.6,0.7,3.2,0.7,4.9
	c0,1.7-0.2,3.3-0.6,4.8l-6.5,0C40.2,35.3,40.4,33.2,40.3,31.2z M45.7,26.2h-6.4c-1.8-5.7-5.6-9.9-7.5-11.6
	C38.2,15.4,43.5,20,45.7,26.2z M27.9,14.6c-3.7,3.7-6.1,7.6-7.3,11.6h-6.4C16.3,20,21.5,15.4,27.9,14.6z M13.7,27.6h6.5
	c-0.4,1.8-0.6,3.7-0.5,5.5c0.1,1.4,0.3,2.8,0.7,4.1l-6.7,0c-0.4-1.5-0.6-3-0.6-4.7C13,30.8,13.3,29.2,13.7,27.6z M14,38.6l6.7,0
	c2.1,6.2,6.5,10.5,8.1,11.9C22,50.1,16.3,45.2,14,38.6z M31.3,50.5c0.2-0.2,0.4-0.4,0.6-0.5c3.6-3.6,6.1-7.4,7.4-11.3l6.5,0
	C43.5,45.2,37.9,49.9,31.3,50.5z"/>
<path class="st2" d="M34,4.4C34,2,32.2,0,29.9,0s-4.1,2-4.1,4.4c0,2.2,1.5,4,3.4,4.3l0,2.5l1.4,0l0-2.5C32.5,8.4,34,6.6,34,4.4z
	 M29.9,7.4c-1.5,0-2.7-1.3-2.7-3s1.2-3,2.7-3s2.7,1.3,2.7,3S31.4,7.4,29.9,7.4z"/>
<path class="st2" d="M49.8,53.6C49,52.7,48,52.2,47,52c-0.9-0.1-1.7,0.1-2.4,0.5l-1.7-2l-1.1,0.9l1.7,2c-0.5,0.6-0.8,1.4-0.8,2.3
	c0,1.1,0.3,2.2,1.1,3c0.7,0.9,1.7,1.4,2.8,1.5c0.2,0,0.3,0,0.5,0c0.9,0,1.8-0.3,2.5-0.9c0.8-0.7,1.3-1.7,1.3-2.8
	C50.9,55.5,50.5,54.4,49.8,53.6z M48.8,58.5L48.8,58.5c-0.6,0.5-1.3,0.7-2.1,0.6c-0.8-0.1-1.5-0.5-2.1-1.1c-0.5-0.6-0.8-1.4-0.8-2.2
	c0-0.8,0.4-1.5,0.9-1.9c0.5-0.4,1.1-0.6,1.7-0.6c0.1,0,0.2,0,0.4,0c0.8,0.1,1.5,0.5,2.1,1.1c0.5,0.6,0.8,1.4,0.8,2.2
	C49.6,57.4,49.3,58,48.8,58.5z"/>
<path class="st2" d="M59.5,22c-0.8-2-3.3-2.9-5.5-2c-1.9,0.8-3,2.8-2.6,4.6l-2.4,1l0.5,1.3l2.4-1c0.7,1.1,2,1.8,3.4,1.8
	c0.6,0,1.2-0.1,1.7-0.3c1.1-0.4,1.9-1.2,2.3-2.2C59.8,24.1,59.9,23,59.5,22z M58.3,24.6c-0.3,0.7-1,1.3-1.7,1.6
	c-1.6,0.7-3.3,0-3.9-1.4c-0.6-1.4,0.2-3.1,1.8-3.8c0.4-0.2,0.9-0.3,1.3-0.3c1.2,0,2.2,0.6,2.6,1.7C58.7,23.1,58.6,23.9,58.3,24.6z"
	/>
<path class="st2" d="M17.6,51.2l-1.1-0.9l-1.7,2c-1.7-0.9-3.9-0.5-5.2,1.1c-0.7,0.9-1.1,2-1.1,3c0,1.1,0.5,2.1,1.3,2.8h0
	c0.7,0.6,1.6,0.9,2.5,0.9c1.2,0,2.5-0.5,3.4-1.6c0.7-0.9,1.1-2,1.1-3c0-0.9-0.3-1.7-0.8-2.3L17.6,51.2z M14.8,57.8
	c-1.1,1.3-3,1.6-4.1,0.6c-0.6-0.5-0.9-1.2-0.9-1.9c0-0.8,0.2-1.6,0.8-2.2c1.1-1.3,3-1.6,4.1-0.6c0.6,0.5,0.9,1.2,0.9,1.9
	C15.6,56.3,15.4,57.1,14.8,57.8z"/>
<path class="st2" d="M10.8,25.6l-2.4-1c0.2-0.8,0.1-1.6-0.3-2.4c-0.5-1-1.3-1.8-2.3-2.2c-1-0.4-2.2-0.5-3.2-0.1
	C1.5,20.2,0.7,21,0.3,22s-0.4,2.1,0.1,3.1c0.5,1,1.3,1.8,2.3,2.2c0.6,0.2,1.2,0.4,1.8,0.4c0.5,0,1-0.1,1.5-0.3
	c0.8-0.3,1.5-0.8,1.9-1.5l2.4,1L10.8,25.6z M7.1,24.8c-0.3,0.7-0.8,1.2-1.6,1.5c-0.8,0.3-1.6,0.2-2.4-0.1c-0.8-0.3-1.4-0.9-1.7-1.6
	c-0.3-0.7-0.3-1.5-0.1-2.1C1.7,21.8,2.2,21.2,3,21c0.3-0.1,0.7-0.2,1.1-0.2c0.4,0,0.9,0.1,1.3,0.3C6.1,21.4,6.7,22,7,22.7
	C7.4,23.4,7.4,24.2,7.1,24.8z"/>
</svg>
