<svg height="512" viewBox="0 0 64 64" width="512" xmlns="http://www.w3.org/2000/svg"><g id="flat"><path d="m59 38v-4h2v-4h-2v-4h2v-4h-58v4h2v4h-2v4h2v4h-2v4h58v-4z" fill="#55b56a"/><path d="m46 26h6v6h-6z" fill="#394d5c"/><g fill="#fcf05a"><path d="m54 25h2v2h-2z"/><path d="m54 29h2v2h-2z"/><path d="m54 33h2v2h-2z"/><path d="m3 38h5v4h-5z"/></g><path d="m8 38h4v4h-4z" fill="#f9bb4b"/><path d="m12 38h4v4h-4z" fill="#fcf05a"/><path d="m16 38h4v4h-4z" fill="#f9bb4b"/><path d="m20 38h4v4h-4z" fill="#fcf05a"/><path d="m24 38h4v4h-4z" fill="#f9bb4b"/><path d="m28 38h4v4h-4z" fill="#fcf05a"/><path d="m32 38h4v4h-4z" fill="#f9bb4b"/><path d="m36 38h4v4h-4z" fill="#fcf05a"/><path d="m40 38h4v4h-4z" fill="#f9bb4b"/><path d="m44 38h4v4h-4z" fill="#fcf05a"/><path d="m48 38h4v4h-4z" fill="#f9bb4b"/><path d="m52 38h4v4h-4z" fill="#fcf05a"/><path d="m56 38h5v4h-5z" fill="#f9bb4b"/><path d="m46 32h2v3h-2z" fill="#cfdfe8"/><path d="m50 32h2v3h-2z" fill="#cfdfe8"/><path d="m34 26h6v6h-6z" fill="#394d5c"/><path d="m42 25h2v2h-2z" fill="#fcf05a"/><path d="m42 29h2v2h-2z" fill="#fcf05a"/><path d="m42 33h2v2h-2z" fill="#fcf05a"/><path d="m34 32h2v3h-2z" fill="#cfdfe8"/><path d="m38 32h2v3h-2z" fill="#cfdfe8"/><path d="m24 26h6v6h-6z" fill="#394d5c" transform="matrix(-1 0 0 -1 54 58)"/><path d="m20 25h2v2h-2z" fill="#fcf05a"/><path d="m20 29h2v2h-2z" fill="#fcf05a"/><path d="m20 33h2v2h-2z" fill="#fcf05a"/><path d="m28 32h2v3h-2z" fill="#cfdfe8"/><path d="m24 32h2v3h-2z" fill="#cfdfe8"/><path d="m12 26h6v6h-6z" fill="#394d5c" transform="matrix(-1 0 0 -1 30 58)"/><path d="m8 25h2v2h-2z" fill="#fcf05a"/><path d="m8 29h2v2h-2z" fill="#fcf05a"/><path d="m8 33h2v2h-2z" fill="#fcf05a"/><path d="m16 32h2v3h-2z" fill="#cfdfe8"/><path d="m12 32h2v3h-2z" fill="#cfdfe8"/></g></svg>